<?xml version="1.0" standalone="no"?>
<!DOCTYPE svg PUBLIC "-//W3C//DTD SVG 20010904//EN"
 "http://www.w3.org/TR/2001/REC-SVG-20010904/DTD/svg10.dtd">
<svg version="1.0" xmlns="http://www.w3.org/2000/svg"
 width="260.000000pt" height="260.000000pt" viewBox="0 0 260.000000 260.000000"
 preserveAspectRatio="xMidYMid meet">
<metadata>
Created by potrace 1.11, written by Peter Selinger 2001-2013
</metadata>
<g transform="translate(0.000000,260.000000) scale(0.100000,-0.100000)"
fill="#000000" stroke="none">
<path d="M700 2546 c0 -4 40 -50 89 -102 84 -90 192 -230 207 -267 5 -15 -3
-17 -77 -17 -54 -1 -102 -7 -134 -19 l-50 -18 -68 28 c-107 44 -357 100 -357
79 0 -4 20 -13 44 -19 57 -14 284 -110 292 -123 3 -5 -4 -17 -17 -25 -13 -9
-48 -40 -77 -70 l-53 -53 -63 6 c-57 6 -302 -3 -294 -11 2 -2 66 -11 142 -19
77 -9 150 -19 162 -22 l23 -6 -19 -43 c-11 -25 -22 -59 -25 -78 -6 -33 -8 -34
-96 -57 -49 -12 -92 -27 -96 -33 -4 -6 3 -8 18 -4 13 3 54 9 92 12 l67 7 0
-41 0 -41 208 1 207 0 -41 19 c-60 26 -197 58 -287 66 -50 4 -77 10 -74 18 11
33 292 32 388 -2 61 -22 126 -60 148 -86 11 -13 36 -16 157 -16 142 0 144 0
160 25 9 14 47 118 85 232 37 113 73 211 79 217 18 18 31 -8 130 -252 142
-349 152 -373 163 -369 6 2 35 77 66 168 39 114 61 164 71 164 9 0 39 -49 77
-127 70 -144 80 -151 140 -98 32 29 37 30 128 30 l95 0 0 33 c0 52 -36 181
-70 252 -36 75 -124 175 -187 212 -103 60 -127 63 -563 63 l-398 0 -40 53
c-54 70 -151 170 -242 247 -106 91 -110 94 -110 86z m428 -456 c45 -77 72
-153 78 -224 6 -75 -5 -99 -35 -72 -27 25 -51 78 -72 162 -10 40 -32 100 -49
134 l-31 61 38 -3 c34 -3 41 -8 71 -58z m-298 -32 c91 -55 261 -215 275 -257
10 -33 -11 -43 -49 -24 -17 9 -75 59 -131 112 -55 53 -133 118 -174 145 -72
48 -73 49 -50 62 13 7 29 13 34 14 6 0 49 -23 95 -52z m-210 -144 c147 -27
267 -78 358 -151 30 -24 42 -42 42 -60 0 -24 -2 -25 -36 -20 -20 3 -64 24 -98
46 -81 53 -191 103 -301 137 -49 15 -91 28 -93 29 -1 1 0 10 4 19 8 20 21 20
124 0z"/>
<path d="M1446 1772 c-3 -5 -21 -55 -40 -112 -56 -164 -40 -154 -251 -158
-142 -2 -181 0 -194 12 -22 19 -90 52 -126 60 -59 15 -200 8 -276 -13 -77 -22
-282 -115 -301 -138 -14 -18 -11 -17 60 12 34 14 68 25 75 25 7 0 19 -21 26
-48 6 -27 23 -65 37 -85 29 -43 29 -45 4 -77 -29 -38 -24 -47 9 -16 l29 28 61
-46 c34 -25 90 -58 124 -74 119 -57 152 -62 379 -62 l209 0 -25 33 c-44 57
-59 105 -45 139 18 43 4 45 -36 5 -40 -40 -48 -24 -10 21 26 31 87 65 138 77
39 10 36 -15 -8 -64 -19 -21 -35 -46 -35 -55 0 -9 25 -48 55 -85 l55 -68 232
-6 c198 -4 243 -8 299 -26 127 -40 228 -125 341 -287 96 -136 88 -165 88 315
l0 421 -61 0 c-84 0 -121 -20 -175 -95 -46 -65 -70 -83 -87 -66 -6 6 -29 45
-52 88 -22 43 -48 79 -56 81 -11 2 -33 -40 -79 -153 -36 -85 -70 -155 -76
-155 -10 0 -185 382 -236 517 -19 48 -41 72 -52 55z m-993 -289 c-7 -2 -21 -2
-30 0 -10 3 -4 5 12 5 17 0 24 -2 18 -5z m502 -3 c-7 -11 -105 -11 -150 0 -21
5 -1 8 63 9 60 1 91 -3 87 -9z m541 -82 c3 -5 -8 -3 -24 6 -17 9 -46 16 -64
17 -31 0 -32 1 -10 11 13 7 21 17 17 26 -5 14 69 -41 81 -60z m-537 33 c18
-32 -12 -44 -127 -52 -120 -8 -179 -24 -269 -73 -35 -19 -63 -31 -63 -27 1 8
74 63 123 91 114 67 314 103 336 61z"/>
<path d="M834 1609 c-5 -8 70 -39 94 -39 18 0 42 18 42 31 0 9 -131 16 -136 8z"/>
<path d="M1170 1591 c0 -12 45 -48 71 -56 22 -7 49 10 49 31 0 8 -10 16 -22
18 -67 14 -98 16 -98 7z"/>
<path d="M690 999 c-53 -21 -60 -36 -60 -124 0 -72 3 -84 23 -103 30 -28 69
-36 111 -22 52 17 66 43 66 123 0 81 -10 104 -55 123 -39 16 -51 17 -85 3z
m69 -63 c18 -22 10 -117 -11 -130 -32 -19 -53 4 -56 63 -3 56 9 81 38 81 10 0
23 -6 29 -14z"/>
<path d="M1167 1004 c-4 -4 -7 -18 -7 -31 0 -20 5 -23 40 -23 l40 0 0 -54 c0
-30 -3 -61 -6 -70 -8 -21 -54 -21 -54 0 0 11 -8 14 -32 12 -27 -2 -32 -7 -30
-23 2 -11 15 -31 29 -44 22 -19 34 -22 72 -18 71 8 82 29 79 151 l-3 101 -60
3 c-34 2 -64 0 -68 -4z"/>
<path d="M1832 995 c-38 -17 -56 -54 -42 -89 11 -29 21 -36 80 -57 50 -17 60
-42 18 -47 -19 -2 -30 3 -38 17 -15 29 -70 29 -70 1 0 -12 11 -32 24 -45 73
-73 212 -12 175 77 -6 15 -12 28 -13 28 -44 10 -111 41 -111 51 0 20 40 23 58
5 22 -23 67 -21 67 2 0 49 -89 84 -148 57z"/>
<path d="M880 875 l0 -125 79 0 c64 0 83 4 105 21 29 23 35 69 13 91 -10 9
-11 19 -4 38 14 37 2 75 -28 88 -14 7 -57 12 -95 12 l-70 0 0 -125z m140 49
c0 -9 -9 -18 -20 -21 -29 -8 -27 -51 3 -55 41 -6 26 -33 -20 -36 l-43 -3 0 65
0 66 40 0 c30 0 40 -4 40 -16z"/>
<path d="M1350 875 l0 -125 95 0 95 0 0 30 0 30 -64 0 c-55 0 -64 3 -62 18 1
13 13 18 56 22 51 5 55 7 55 30 0 23 -4 25 -58 30 -31 3 -57 10 -57 15 0 6 28
12 62 15 60 5 63 6 66 33 l3 27 -95 0 -96 0 0 -125z"/>
<path d="M1570 970 c0 -28 3 -30 35 -30 l35 0 0 -95 0 -95 30 0 30 0 0 94 0
95 33 3 c27 2 33 8 35 31 l3 27 -100 0 -101 0 0 -30z"/>
<path d="M731 716 c-40 -22 -50 -54 -51 -158 0 -91 1 -98 20 -98 19 0 20 7 20
93 0 98 14 137 49 137 22 0 51 -30 51 -53 0 -25 -29 -47 -61 -47 -19 0 -29 -5
-29 -15 0 -11 11 -15 43 -15 96 0 122 111 37 155 -35 18 -48 18 -79 1z"/>
<path d="M1380 590 c0 -123 1 -130 20 -130 19 0 20 7 20 130 0 123 -1 130 -20
130 -19 0 -20 -7 -20 -130z"/>
<path d="M1277 643 c-4 -3 -20 -6 -37 -5 l-30 1 0 -90 c0 -72 3 -89 15 -89 11
0 15 12 15 44 0 58 15 97 40 103 11 3 20 11 20 19 0 15 -15 26 -23 17z"/>
<path d="M969 627 c-47 -36 -52 -105 -10 -148 30 -29 47 -34 89 -23 15 4 22
14 22 30 0 21 -2 23 -20 12 -13 -9 -27 -9 -47 -2 -24 8 -28 15 -28 49 0 34 4
42 28 53 24 12 31 11 53 -2 21 -14 24 -24 24 -76 0 -53 2 -60 20 -60 18 0 20
7 20 65 0 57 -3 69 -25 90 -18 19 -35 25 -67 25 -24 0 -50 -6 -59 -13z"/>
<path d="M1545 616 c-36 -36 -42 -73 -19 -115 31 -57 108 -67 154 -21 11 11
20 29 20 40 0 28 -33 26 -45 -2 -24 -54 -115 -20 -101 36 8 34 49 61 72 48 14
-8 10 -13 -22 -32 -22 -13 -41 -25 -42 -26 -2 -1 0 -9 5 -17 7 -13 18 -10 71
20 l63 36 -27 28 c-37 38 -94 40 -129 5z"/>
<path d="M1808 629 c-11 -6 -18 -22 -18 -40 0 -27 6 -33 56 -55 30 -13 52 -29
49 -34 -3 -6 -28 -10 -56 -10 -37 0 -49 -4 -49 -15 0 -12 14 -15 65 -15 59 0
66 2 76 24 16 34 -2 61 -56 82 -57 21 -53 38 8 42 33 2 47 7 47 18 0 17 -94
20 -122 3z"/>
</g>
</svg>
